<svg class="icon icon-tabler icon-tabler-book" viewBox="0 0 1024 1024" xmlns="http://www.w3.org/2000/svg" width="24" height="24" stroke-width="2" stroke="currentColor" fill="currentColor" stroke-linecap="round" stroke-linejoin="round">
  <path d="M841 87h-4l-296 81v0h-57L187 87h-4c-48 0-86 38-86 86v595c0 23 9 43 26 59 13 11 30 20 52 26l308 84h58c155-41 307-83 308-84h1c22-7 38-15 50-26 18-15 27-36 27-59V173c0-47-38-86-86-86zM190 797c-35-10-35-23-35-29V173c0-14 11-26 24-28l304 83v649l-293-80zm679-29c0 6 0 18-36 29l-292 79V228l304-82c13 1 24 13 24 27v595z"/>
</svg>
