<svg class="icon icon-tabler icon-tabler-movie" viewBox="0 0 1024 1024" xmlns="http://www.w3.org/2000/svg" width="24" height="24" stroke-width="2" stroke="currentColor" fill="currentColor" stroke-linecap="round" stroke-linejoin="round">
  <path d="M488 416a104 104 0 1 1 0-208 104 104 0 1 1 0 208zm0-144c-22 0-40 18-40 40s18 40 40 40 40-18 40-40-18-40-40-40zM312 640a104 104 0 1 1 0-208 104 104 0 1 1 0 208zm0-144c-22 0-40 18-40 40s18 40 40 40 40-18 40-40-18-40-40-40zm224 320a104 104 0 1 1 0-208 104 104 0 1 1 0 208zm0-144c-22 0-40 18-40 40s18 40 40 40 40-18 40-40-18-40-40-40zm176-80a104 104 0 1 1 0-208 104 104 0 1 1 0 208zm0-144c-22 0-40 18-40 40s18 40 40 40 40-18 40-40-18-40-40-40z"/>
  <path d="M928 960H512C266 960 64 758 64 512S266 64 512 64a450 450 0 0 1 314 768c-13 13-34 13-45 0-13-13-13-34 0-45a385 385 0 0 0-269-659c-211 0-384 173-384 384s173 384 384 384h416c18 0 32 14 32 32s-14 32-32 32z"/>
</svg>
